REM DIRINDEX 1\2\3,1\2\4,1\2\5,1\2\6
REM DIRNAME cjc157,folder01,folder02,folder03,folder04,folder05
TITLE ""
FILE "061 061.mp3" MP3
  TRACK 01 AUDIO
    TITLE "0:"
    INDEX 01 00:00:00
  TRACK 02 AUDIO
    TITLE "3:cjc157_2255"
    INDEX 01 00:00:11
  TRACK 03 AUDIO
    TITLE "0:"
    INDEX 01 00:01:21
  TRACK 04 AUDIO
    TITLE "4:cjc157_2256"
    INDEX 01 00:01:64
  TRACK 05 AUDIO
    TITLE "0:"
    INDEX 01 00:03:15
  TRACK 06 AUDIO
    TITLE "5:cjc157_2257"
    INDEX 01 00:03:63
  TRACK 07 AUDIO
    TITLE "0:"
    INDEX 01 00:05:38
  TRACK 08 AUDIO
    TITLE "5:cjc157_2258"
    INDEX 01 00:06:08
  TRACK 09 AUDIO
    TITLE "0:"
    INDEX 01 00:08:19
  TRACK 10 AUDIO
    TITLE "3:cjc157_2259"
    INDEX 01 00:08:60
  TRACK 11 AUDIO
    TITLE "0:"
    INDEX 01 00:10:04
  TRACK 12 AUDIO
    TITLE "4:cjc157_2260"
    INDEX 01 00:10:47
  TRACK 13 AUDIO
    TITLE "0:"
    INDEX 01 00:11:66
  TRACK 14 AUDIO
    TITLE "5:cjc157_2261"
    INDEX 01 00:12:38
  TRACK 15 AUDIO
    TITLE "0:"
    INDEX 01 00:14:37
  TRACK 16 AUDIO
    TITLE "5:cjc157_2262"
    INDEX 01 00:15:05
  TRACK 17 AUDIO
    TITLE "0:"
    INDEX 01 00:17:21
  TRACK 18 AUDIO
    TITLE "3:cjc157_2263"
    INDEX 01 00:17:70
  TRACK 19 AUDIO
    TITLE "0:"
    INDEX 01 00:19:15
  TRACK 20 AUDIO
    TITLE "4:cjc157_2264"
    INDEX 01 00:19:58
  TRACK 21 AUDIO
    TITLE "0:"
    INDEX 01 00:20:67
  TRACK 22 AUDIO
    TITLE "5:cjc157_2265"
    INDEX 01 00:21:39
  TRACK 23 AUDIO
    TITLE "0:"
    INDEX 01 00:23:06
  TRACK 24 AUDIO
    TITLE "5:cjc157_2266"
    INDEX 01 00:23:53
  TRACK 25 AUDIO
    TITLE "0:"
    INDEX 01 00:25:09
  TRACK 26 AUDIO
    TITLE "5:cjc157_2267"
    INDEX 01 00:25:56
  TRACK 27 AUDIO
    TITLE "0:"
    INDEX 01 00:27:36
  TRACK 28 AUDIO
    TITLE "3:cjc157_2268"
    INDEX 01 00:28:08
  TRACK 29 AUDIO
    TITLE "0:"
    INDEX 01 00:29:29
  TRACK 30 AUDIO
    TITLE "4:cjc157_2269"
    INDEX 01 00:30:01
  TRACK 31 AUDIO
    TITLE "0:"
    INDEX 01 00:31:06
  TRACK 32 AUDIO
    TITLE "5:cjc157_2270"
    INDEX 01 00:31:51
  TRACK 33 AUDIO
    TITLE "0:"
    INDEX 01 00:33:38
  TRACK 34 AUDIO
    TITLE "5:cjc157_2271"
    INDEX 01 00:34:06
  TRACK 35 AUDIO
    TITLE "0:"
    INDEX 01 00:35:55
  TRACK 36 AUDIO
    TITLE "5:cjc157_2272"
    INDEX 01 00:36:27
  TRACK 37 AUDIO
    TITLE "0:"
    INDEX 01 00:37:59
  TRACK 38 AUDIO
    TITLE "3:cjc157_2273"
    INDEX 01 00:38:33
  TRACK 39 AUDIO
    TITLE "0:"
    INDEX 01 00:39:56
  TRACK 40 AUDIO
    TITLE "4:cjc157_2274"
    INDEX 01 00:40:26
  TRACK 41 AUDIO
    TITLE "0:"
    INDEX 01 00:41:28
  TRACK 42 AUDIO
    TITLE "5:cjc157_2275"
    INDEX 01 00:42:08
  TRACK 43 AUDIO
    TITLE "0:"
    INDEX 01 00:44:28
  TRACK 44 AUDIO
    TITLE "3:cjc157_2276"
    INDEX 01 00:44:71
  TRACK 45 AUDIO
    TITLE "0:"
    INDEX 01 00:46:21
  TRACK 46 AUDIO
    TITLE "4:cjc157_2277"
    INDEX 01 00:46:70
  TRACK 47 AUDIO
    TITLE "0:"
    INDEX 01 00:47:64
  TRACK 48 AUDIO
    TITLE "5:cjc157_2278"
    INDEX 01 00:48:42
  TRACK 49 AUDIO
    TITLE "0:"
    INDEX 01 00:50:09
  TRACK 50 AUDIO
    TITLE "5:cjc157_2279"
    INDEX 01 00:50:58
  TRACK 51 AUDIO
    TITLE "0:"
    INDEX 01 00:52:18
  TRACK 52 AUDIO
    TITLE "3:cjc157_2280"
    INDEX 01 00:52:65
  TRACK 53 AUDIO
    TITLE "0:"
    INDEX 01 00:53:72
  TRACK 54 AUDIO
    TITLE "4:cjc157_2281"
    INDEX 01 00:54:44
  TRACK 55 AUDIO
    TITLE "0:"
    INDEX 01 00:55:57
  TRACK 56 AUDIO
    TITLE "5:cjc157_2282"
    INDEX 01 00:56:27
  TRACK 57 AUDIO
    TITLE "0:"
    INDEX 01 00:57:74
  TRACK 58 AUDIO
    TITLE "3:cjc157_2283"
    INDEX 01 00:58:48
  TRACK 59 AUDIO
    TITLE "0:"
    INDEX 01 00:59:41
  TRACK 60 AUDIO
    TITLE "4:cjc157_2284"
    INDEX 01 01:00:15
  TRACK 61 AUDIO
    TITLE "0:"
    INDEX 01 01:01:40
  TRACK 62 AUDIO
    TITLE "5:cjc157_2285"
    INDEX 01 01:02:06
  TRACK 63 AUDIO
    TITLE "0:"
    INDEX 01 01:04:13
  TRACK 64 AUDIO
    TITLE "5:cjc157_2286"
    INDEX 01 01:04:62
  TRACK 65 AUDIO
    TITLE "0:"
    INDEX 01 01:08:13
  TRACK 66 AUDIO
    TITLE "3:cjc157_2287"
    INDEX 01 01:08:58
  TRACK 67 AUDIO
    TITLE "0:"
    INDEX 01 01:10:02
  TRACK 68 AUDIO
    TITLE "4:cjc157_2288"
    INDEX 01 01:10:47
  TRACK 69 AUDIO
    TITLE "0:"
    INDEX 01 01:12:19
  TRACK 70 AUDIO
    TITLE "5:cjc157_2289"
    INDEX 01 01:12:62
  TRACK 71 AUDIO
    TITLE "0:"
    INDEX 01 01:15:52
  TRACK 72 AUDIO
    TITLE "5:cjc157_2290"
    INDEX 01 01:16:28
  TRACK 73 AUDIO
    TITLE "0:"
    INDEX 01 01:18:47
  TRACK 74 AUDIO
    TITLE "3:cjc157_2291"
    INDEX 01 01:19:15
  TRACK 75 AUDIO
    TITLE "0:"
    INDEX 01 01:20:24
  TRACK 76 AUDIO
    TITLE "4:cjc157_2292"
    INDEX 01 01:20:71
  TRACK 77 AUDIO
    TITLE "0:"
    INDEX 01 01:22:03
  TRACK 78 AUDIO
    TITLE "5:cjc157_2293"
    INDEX 01 01:22:50
  TRACK 79 AUDIO
    TITLE "0:"
    INDEX 01 01:25:29
